<svg width="61" height="64" viewBox="0 0 61 64" fill="none" xmlns="http://www.w3.org/2000/svg">
<path d="M40.568 30.3508C37.4983 32.5908 17.3963 47.2657 12.7422 50.6657L4.87244 43.4905L27.2474 18.2059L40.568 30.3508ZM56.0594 4.10037C50.0631 -1.36679 40.3374 -1.36679 34.341 4.10037C30.3871 7.7079 30.0516 11.6613 29.859 13.0634L46.2288 27.9883C47.6411 27.8447 52.0706 27.5386 56.0594 23.9019C62.0588 18.4347 62.0588 9.56753 56.0594 4.10037ZM27.3641 51.8283C20.6761 51.8283 17.6211 55.6248 13.3112 58.0936C10.259 59.8389 7.37022 58.9529 5.98127 57.386C5.47646 56.8245 4.03498 54.8026 6.48899 52.4855L6.12425 52.1528L2.83861 49.2504C-1.16484 53.0175 -0.455773 57.519 2.0245 60.3097C4.86952 63.5128 10.5916 65.1304 16.0162 62.0257C20.6411 59.3785 22.6895 56.4708 27.3641 56.4708C30.3871 56.4708 33.1417 57.7052 37.5333 63.848L41.7964 61.3153C37.7317 55.622 33.7195 51.8283 27.3641 51.8283Z" fill="#AEAEAE"/>
</svg>
